<?xml version="1.0" encoding="UTF-8" standalone="no"?>
<svg
   xmlns:dc="http://purl.org/dc/elements/1.1/"
   xmlns:cc="http://creativecommons.org/ns#"
   xmlns:rdf="http://www.w3.org/1999/02/22-rdf-syntax-ns#"
   xmlns:svg="http://www.w3.org/2000/svg"
   xmlns="http://www.w3.org/2000/svg"
   xmlns:sodipodi="http://sodipodi.sourceforge.net/DTD/sodipodi-0.dtd"
   xmlns:inkscape="http://www.inkscape.org/namespaces/inkscape"
   sodipodi:docname="VCO-1.svg"
   inkscape:version="1.0 (4035a4fb49, 2020-05-01)"
   id="svg8"
   version="1.1"
   viewBox="0 0 40.640003 128.50002"
   height="128.5mm"
   width="40.639999mm">
  <defs
     id="defs2" />
  <sodipodi:namedview
     id="base"
     pagecolor="#ffffff"
     bordercolor="#666666"
     borderopacity="1.0"
     inkscape:pageopacity="0.0"
     inkscape:pageshadow="2"
     inkscape:zoom="1.979899"
     inkscape:cx="-44.555237"
     inkscape:cy="145.0771"
     inkscape:document-units="mm"
     inkscape:current-layer="layer1"
     showgrid="false"
     units="mm"
     inkscape:snap-bbox="true"
     inkscape:snap-page="true"
     inkscape:bbox-nodes="false"
     inkscape:snap-bbox-edge-midpoints="false"
     inkscape:window-width="1920"
     inkscape:window-height="1028"
     inkscape:window-x="0"
     inkscape:window-y="24"
     inkscape:window-maximized="1"
     inkscape:snap-bbox-midpoints="true"
     inkscape:snap-nodes="false"
     inkscape:document-rotation="0"
     showguides="false" />
  <metadata
     id="metadata5">
    <rdf:RDF>
      <cc:Work
         rdf:about="">
        <dc:format>image/svg+xml</dc:format>
        <dc:type
           rdf:resource="http://purl.org/dc/dcmitype/StillImage" />
        <dc:title />
      </cc:Work>
    </rdf:RDF>
  </metadata>
  <g
     inkscape:label="Layer 1"
     inkscape:groupmode="layer"
     id="layer1"
     transform="translate(0,-168.49998)">
    <rect
       style="display:inline;opacity:1;vector-effect:none;fill:#e6e6e6;fill-opacity:1;fill-rule:evenodd;stroke:none;stroke-width:0.749814;stroke-linecap:butt;stroke-linejoin:miter;stroke-miterlimit:4;stroke-dasharray:none;stroke-dashoffset:0;stroke-opacity:1;paint-order:normal"
       id="rect420"
       width="40.639999"
       height="128.5"
       x="-0.094494045"
       y="168.49997" />
    <g
       transform="matrix(0.703243,0,0,0.703243,6.0790449,88.025137)"
       aria-label="AtomicHorse"
       id="text351"
       style="font-style:normal;font-weight:normal;font-size:10.5833px;line-height:1.25;font-family:sans-serif;fill:#000000;fill-opacity:1;stroke:none;stroke-width:0.264583">
      <path
         d="m 9.210156,294.90211 h 1.002522 l -0.5043616,-1.05833 z m -0.150895,0.31833 -0.3824053,0.91364 H 8.3254563 l 1.378726,-3.11299 1.3787257,3.11299 h -0.353466 l -0.388607,-0.91364 z"
         style="font-style:normal;font-variant:normal;font-weight:bold;font-stretch:normal;font-size:4.23333px;font-family:Sawasdee;-inkscape-font-specification:'Sawasdee, Bold';font-variant-ligatures:normal;font-variant-caps:normal;font-variant-numeric:normal;font-variant-east-asian:normal;stroke-width:0.264583"
         id="path1339" />
      <path
         d="m 11.750567,296.13408 h -0.328662 v -1.78387 h -0.179833 v -0.30799 h 0.179833 v -0.46302 h 0.328662 v 0.46302 h 0.597379 l -0.109554,0.30799 h -0.487825 z"
         style="font-style:normal;font-variant:normal;font-weight:bold;font-stretch:normal;font-size:4.23333px;font-family:Sawasdee;-inkscape-font-specification:'Sawasdee, Bold';font-variant-ligatures:normal;font-variant-caps:normal;font-variant-numeric:normal;font-variant-east-asian:normal;stroke-width:0.264583"
         id="path1341" />
      <path
         d="m 14.636177,294.54658 q 0.150895,0.24805 0.150895,0.54157 0,0.29352 -0.150895,0.54157 -0.150895,0.24805 -0.409277,0.39274 -0.258382,0.14263 -0.562239,0.14263 -0.305924,0 -0.566373,-0.14263 -0.258382,-0.14469 -0.409277,-0.39274 -0.150895,-0.24805 -0.150895,-0.54157 0,-0.29352 0.150895,-0.54157 0.150895,-0.25011 0.409277,-0.39274 0.260449,-0.14469 0.566373,-0.14469 0.303857,0 0.562239,0.14469 0.258382,0.14263 0.409277,0.39274 z m -1.767333,0.54157 q 0,0.32039 0.233578,0.54364 0.233577,0.22324 0.566373,0.22324 0.332796,0 0.56844,-0.22324 0.235645,-0.22531 0.235645,-0.54364 0,-0.31626 -0.235645,-0.5395 -0.235644,-0.22531 -0.56844,-0.22531 -0.332796,0 -0.566373,0.22531 -0.233578,0.22324 -0.233578,0.5395 z"
         style="font-style:normal;font-variant:normal;font-weight:bold;font-stretch:normal;font-size:4.23333px;font-family:Sawasdee;-inkscape-font-specification:'Sawasdee, Bold';font-variant-ligatures:normal;font-variant-caps:normal;font-variant-numeric:normal;font-variant-east-asian:normal;stroke-width:0.264583"
         id="path1343" />
      <path
         d="m 15.60976,294.44736 q 0.09509,-0.1819 0.254248,-0.30592 0.16123,-0.12609 0.318327,-0.12609 0.221175,0 0.365868,0.11782 0.144694,0.11576 0.212907,0.31419 0.115755,-0.1881 0.270784,-0.31006 0.157097,-0.12195 0.312126,-0.12195 0.132291,0 0.241845,0.0496 0.109554,0.0475 0.181901,0.12815 0.07235,0.0806 0.121956,0.19224 0.04961,0.10955 0.07028,0.23151 0.02274,0.11989 0.02274,0.25011 v 1.27124 h -0.322461 v -1.27124 q 0,-0.0951 -0.01654,-0.1819 -0.01447,-0.0868 -0.04754,-0.16949 -0.03307,-0.0847 -0.09922,-0.13436 -0.06615,-0.0517 -0.157096,-0.0517 -0.111621,0 -0.243913,0.13436 -0.130224,0.13229 -0.217041,0.31419 -0.08475,0.17984 -0.08475,0.31419 v 1.04593 h -0.324528 v -1.28157 q 0,-0.0951 -0.01447,-0.1819 -0.01447,-0.0868 -0.04961,-0.1695 -0.03307,-0.0848 -0.101286,-0.13436 -0.06615,-0.0517 -0.157096,-0.0517 -0.103353,0 -0.231511,0.13022 -0.128157,0.12816 -0.21704,0.31213 -0.08888,0.18396 -0.08888,0.32659 v 1.05006 h -0.328662 v -1.48001 q 0,-0.15916 -0.02687,-0.3514 -0.02481,-0.1943 -0.06615,-0.26871 h 0.365869 q 0.03721,0.12195 0.04547,0.19016 0.01033,0.0661 0.01033,0.21911 z"
         style="font-style:normal;font-variant:normal;font-weight:bold;font-stretch:normal;font-size:4.23333px;font-family:Sawasdee;-inkscape-font-specification:'Sawasdee, Bold';font-variant-ligatures:normal;font-variant-caps:normal;font-variant-numeric:normal;font-variant-east-asian:normal;stroke-width:0.264583"
         id="path1345" />
      <path
         d="m 18.733081,293.35802 q 0.09715,0 0.165364,0.0661 0.07028,0.0661 0.07028,0.16123 0,0.093 -0.07028,0.1571 -0.06821,0.0641 -0.165364,0.0641 -0.101286,0 -0.169499,-0.0641 -0.06821,-0.0641 -0.06821,-0.1571 0,-0.0951 0.06821,-0.16123 0.07028,-0.0661 0.169499,-0.0661 z m 0.159163,2.78019 H 18.56565 v -2.09599 h 0.326594 z"
         style="font-style:normal;font-variant:normal;font-weight:bold;font-stretch:normal;font-size:4.23333px;font-family:Sawasdee;-inkscape-font-specification:'Sawasdee, Bold';font-variant-ligatures:normal;font-variant-caps:normal;font-variant-numeric:normal;font-variant-east-asian:normal;stroke-width:0.264583"
         id="path1347" />
      <path
         d="m 21.002708,295.43955 0.283187,0.15089 q -0.332796,0.57465 -0.897102,0.57465 -0.28112,0 -0.514697,-0.14677 -0.233577,-0.14676 -0.365869,-0.39274 -0.130224,-0.24804 -0.130224,-0.53743 0,-0.28732 0.130224,-0.5333 0.132292,-0.24805 0.365869,-0.39688 0.233577,-0.14882 0.514697,-0.14882 0.115755,0 0.225309,0.0289 0.109554,0.0269 0.186035,0.0641 0.07855,0.0351 0.157096,0.0992 0.08062,0.0641 0.124023,0.10542 0.04341,0.0413 0.09509,0.11369 0.05374,0.0724 0.06615,0.093 0.0124,0.0207 0.04341,0.0703 l -0.283187,0.15916 q -0.031,-0.0558 -0.05788,-0.093 -0.02481,-0.0393 -0.08475,-0.10542 -0.05788,-0.0661 -0.11989,-0.10748 -0.05994,-0.0434 -0.152962,-0.0744 -0.09302,-0.0331 -0.198437,-0.0331 -0.28112,0 -0.487825,0.21704 -0.204639,0.21704 -0.204639,0.53744 0,0.32039 0.206706,0.54363 0.208772,0.22324 0.485758,0.22324 0.109554,0 0.208772,-0.0372 0.09922,-0.0372 0.159164,-0.0786 0.05994,-0.0413 0.119889,-0.11369 0.06201,-0.0744 0.07855,-0.10129 0.01654,-0.0269 0.04754,-0.0806 z"
         style="font-style:normal;font-variant:normal;font-weight:bold;font-stretch:normal;font-size:4.23333px;font-family:Sawasdee;-inkscape-font-specification:'Sawasdee, Bold';font-variant-ligatures:normal;font-variant-caps:normal;font-variant-numeric:normal;font-variant-east-asian:normal;stroke-width:0.264583"
         id="path1349" />
      <path
         d="m 23.743624,293.0521 h 0.328662 v 3.08611 h -0.328662 v -1.62057 h -1.643309 v 1.62057 h -0.328662 v -3.08611 h 0.328662 v 1.14722 h 1.643309 z"
         style="font-style:normal;font-variant:normal;font-weight:bold;font-stretch:normal;font-size:4.23333px;font-family:Sawasdee;-inkscape-font-specification:'Sawasdee, Bold';font-variant-ligatures:normal;font-variant-caps:normal;font-variant-numeric:normal;font-variant-east-asian:normal;stroke-width:0.264583"
         id="path1351" />
      <path
         d="m 26.656104,294.54658 q 0.150895,0.24805 0.150895,0.54157 0,0.29352 -0.150895,0.54157 -0.150895,0.24805 -0.409277,0.39274 -0.258382,0.14263 -0.562239,0.14263 -0.305924,0 -0.566373,-0.14263 -0.258382,-0.14469 -0.409277,-0.39274 -0.150895,-0.24805 -0.150895,-0.54157 0,-0.29352 0.150895,-0.54157 0.150895,-0.25011 0.409277,-0.39274 0.260449,-0.14469 0.566373,-0.14469 0.303857,0 0.562239,0.14469 0.258382,0.14263 0.409277,0.39274 z m -1.767332,0.54157 q 0,0.32039 0.233577,0.54364 0.233577,0.22324 0.566373,0.22324 0.332796,0 0.568441,-0.22324 0.235644,-0.22531 0.235644,-0.54364 0,-0.31626 -0.235644,-0.5395 -0.235645,-0.22531 -0.568441,-0.22531 -0.332796,0 -0.566373,0.22531 -0.233577,0.22324 -0.233577,0.5395 z"
         style="font-style:normal;font-variant:normal;font-weight:bold;font-stretch:normal;font-size:4.23333px;font-family:Sawasdee;-inkscape-font-specification:'Sawasdee, Bold';font-variant-ligatures:normal;font-variant-caps:normal;font-variant-numeric:normal;font-variant-east-asian:normal;stroke-width:0.264583"
         id="path1353" />
      <path
         d="m 27.623487,294.35021 q 0.221174,-0.24805 0.506428,-0.34933 l 0.411344,0.28732 q -0.177767,0 -0.32246,0.0372 -0.144694,0.0351 -0.237712,0.091 -0.09302,0.0537 -0.163297,0.13022 -0.07028,0.0765 -0.10542,0.14676 -0.03514,0.0703 -0.05788,0.1509 -0.02067,0.0786 -0.02687,0.12609 -0.0041,0.0475 -0.0041,0.091 v 1.07693 h -0.322461 v -1.48001 q 0,-0.15503 -0.02894,-0.3514 -0.02687,-0.19637 -0.06408,-0.26871 h 0.361735 q 0.05374,0.14676 0.05374,0.31212 z"
         style="font-style:normal;font-variant:normal;font-weight:bold;font-stretch:normal;font-size:4.23333px;font-family:Sawasdee;-inkscape-font-specification:'Sawasdee, Bold';font-variant-ligatures:normal;font-variant-caps:normal;font-variant-numeric:normal;font-variant-east-asian:normal;stroke-width:0.264583"
         id="path1355" />
      <path
         d="m 30.097752,294.4949 -0.305924,0.10749 -0.02274,-0.0703 q -0.03927,-0.10748 -0.121957,-0.16123 -0.08062,-0.0558 -0.173632,-0.0558 -0.109554,0 -0.179834,0.0641 -0.07028,0.0641 -0.07028,0.16536 0,0.0661 0.05374,0.12196 0.05374,0.0537 0.14056,0.0951 0.08682,0.0393 0.190169,0.0806 0.10542,0.0413 0.208773,0.0971 0.10542,0.0558 0.192236,0.12609 0.08682,0.0703 0.14056,0.1819 0.05374,0.11162 0.05374,0.25218 0,0.29353 -0.219108,0.48369 -0.219108,0.19017 -0.518831,0.19017 -0.171565,0 -0.320393,-0.0661 -0.148828,-0.0682 -0.260449,-0.21911 -0.111621,-0.15296 -0.142627,-0.36794 l -0.01034,-0.0703 0.324527,-0.0393 0.01034,0.0661 q 0.02687,0.1943 0.138492,0.28938 0.111621,0.0951 0.264584,0.0951 0.163297,0 0.28732,-0.0992 0.124024,-0.10129 0.124024,-0.26252 0,-0.0909 -0.05581,-0.15916 -0.05374,-0.0703 -0.14056,-0.11575 -0.08682,-0.0476 -0.192236,-0.0889 -0.103353,-0.0434 -0.208772,-0.093 -0.10542,-0.0496 -0.192237,-0.10955 -0.08682,-0.062 -0.142626,-0.16123 -0.05374,-0.0992 -0.05374,-0.22738 0,-0.24598 0.169499,-0.39274 0.171565,-0.14676 0.409277,-0.14676 0.109554,0 0.21704,0.0351 0.107487,0.0351 0.217041,0.13643 0.111621,0.10128 0.167432,0.25425 z"
         style="font-style:normal;font-variant:normal;font-weight:bold;font-stretch:normal;font-size:4.23333px;font-family:Sawasdee;-inkscape-font-specification:'Sawasdee, Bold';font-variant-ligatures:normal;font-variant-caps:normal;font-variant-numeric:normal;font-variant-east-asian:normal;stroke-width:0.264583"
         id="path1357" />
      <path
         d="m 30.965917,294.85251 h 1.31258 q -0.06615,-0.23565 -0.250114,-0.38241 -0.181901,-0.14676 -0.405143,-0.14676 -0.219108,0 -0.403076,0.14676 -0.181901,0.14676 -0.254247,0.38241 z m -0.03721,0.30592 q 0.0248,0.29766 0.225309,0.49609 0.200504,0.19637 0.460953,0.19637 0.204638,0 0.380338,-0.10335 0.1757,-0.10542 0.295589,-0.30799 l 0.28112,0.15089 q -0.08061,0.14263 -0.188102,0.25219 -0.107487,0.10748 -0.208773,0.16743 -0.101286,0.0599 -0.212907,0.0971 -0.111621,0.0372 -0.192236,0.0475 -0.07855,0.0103 -0.155029,0.0103 -0.28112,0 -0.514697,-0.14677 -0.233577,-0.14676 -0.365869,-0.39274 -0.130224,-0.24804 -0.130224,-0.53743 0,-0.28732 0.134358,-0.5333 0.134359,-0.24805 0.370003,-0.39688 0.235645,-0.14882 0.514697,-0.14882 0.26665,0 0.491959,0.13436 0.225309,0.13435 0.361735,0.36173 0.136426,0.22531 0.159163,0.49403 l 0.0083,0.15916 z"
         style="font-style:normal;font-variant:normal;font-weight:bold;font-stretch:normal;font-size:4.23333px;font-family:Sawasdee;-inkscape-font-specification:'Sawasdee, Bold';font-variant-ligatures:normal;font-variant-caps:normal;font-variant-numeric:normal;font-variant-east-asian:normal;stroke-width:0.264583"
         id="path1359" />
    </g>
    <g
       transform="matrix(0.27742477,0,0,0.27742477,14.682623,121.3125)"
       aria-label="VCO"
       id="text357"
       style="font-style:normal;font-weight:normal;font-size:12.7001px;line-height:1.25;font-family:sans-serif;fill:#000000;fill-opacity:1;stroke:none;stroke-width:0.264585">
      <path
         d="m 13.070626,173.05562 h 1.060409 l -3.950178,9.35144 -4.0804029,-9.35144 H 7.136058 l 3.019994,6.80274 z"
         style="font-style:normal;font-variant:normal;font-weight:bold;font-stretch:normal;font-size:12.7001px;font-family:Sawasdee;-inkscape-font-specification:'Sawasdee, Bold';font-variant-ligatures:normal;font-variant-caps:normal;font-variant-numeric:normal;font-variant-east-asian:normal;stroke-width:0.264585"
         id="path1332" />
      <path
         d="m 22.905763,179.78394 0.793756,0.5147 q -1.581311,2.09602 -3.999788,2.09602 -0.979792,0 -1.878969,-0.37208 -0.892976,-0.37207 -1.544104,-0.99839 -0.644927,-0.62633 -1.029403,-1.4945 -0.384476,-0.87437 -0.384476,-1.83556 0,-0.96119 0.384476,-1.83556 0.384476,-0.87437 1.029403,-1.5069 0.651128,-0.63252 1.544104,-1.00459 0.899177,-0.37208 1.878969,-0.37208 0.496098,0 0.96119,0.093 0.465091,0.093 0.818561,0.23565 0.353469,0.13642 0.688335,0.34106 0.334866,0.20464 0.55811,0.39068 0.223244,0.17984 0.440287,0.40928 0.217043,0.22325 0.322463,0.35347 0.105421,0.12403 0.210842,0.27286 l -0.781354,0.56431 q -0.167433,-0.21085 -0.272854,-0.33487 -0.10542,-0.12402 -0.434085,-0.41548 -0.322464,-0.29146 -0.638726,-0.46509 -0.316262,-0.17984 -0.824762,-0.32867 -0.502299,-0.14883 -1.048007,-0.14883 -0.787555,0 -1.500695,0.29766 -0.71314,0.29766 -1.227842,0.79996 -0.514701,0.5023 -0.818561,1.20304 -0.297658,0.69453 -0.297658,1.46348 0,0.76275 0.297658,1.45729 0.30386,0.69454 0.81236,1.20304 0.514701,0.5023 1.227842,0.79996 0.719341,0.29765 1.506896,0.29765 0.539507,0 1.035604,-0.14262 0.502299,-0.14263 0.830964,-0.32867 0.328665,-0.18604 0.632524,-0.45269 0.310061,-0.26665 0.440287,-0.42168 0.136427,-0.15503 0.266653,-0.33487 z"
         style="font-style:normal;font-variant:normal;font-weight:bold;font-stretch:normal;font-size:12.7001px;font-family:Sawasdee;-inkscape-font-specification:'Sawasdee, Bold';font-variant-ligatures:normal;font-variant-caps:normal;font-variant-numeric:normal;font-variant-east-asian:normal;stroke-width:0.264585"
         id="path1334" />
      <path
         d="m 34.154776,175.85857 q 0.384476,0.87437 0.384476,1.83556 0,0.96119 -0.384476,1.83556 -0.378274,0.86817 -1.029402,1.4945 -0.644927,0.62632 -1.537903,0.99839 -0.886775,0.37208 -1.860366,0.37208 -0.979793,0 -1.87897,-0.37208 -0.892976,-0.37207 -1.544104,-0.99839 -0.644927,-0.62633 -1.029403,-1.4945 -0.384475,-0.87437 -0.384475,-1.83556 0,-0.96119 0.384475,-1.83556 0.384476,-0.87437 1.029403,-1.5069 0.651128,-0.63252 1.544104,-1.00459 0.899177,-0.37208 1.87897,-0.37208 0.973591,0 1.860366,0.37208 0.892976,0.37207 1.537903,1.00459 0.651128,0.63253 1.029402,1.5069 z m -8.272428,1.83556 q 0,0.76275 0.297659,1.45729 0.303859,0.69454 0.812359,1.20304 0.514702,0.50229 1.227842,0.79995 0.719342,0.29766 1.506897,0.29766 1.041805,0 1.922378,-0.5023 0.886775,-0.5085 1.401476,-1.37047 0.514701,-0.86817 0.514701,-1.88517 0,-1.0232 -0.514701,-1.89137 -0.514701,-0.86817 -1.401476,-1.37047 -0.880573,-0.5023 -1.922378,-0.5023 -0.787555,0 -1.500696,0.29766 -0.71314,0.29766 -1.227841,0.79996 -0.514702,0.5023 -0.818561,1.20303 -0.297659,0.69454 -0.297659,1.46349 z"
         style="font-style:normal;font-variant:normal;font-weight:bold;font-stretch:normal;font-size:12.7001px;font-family:Sawasdee;-inkscape-font-specification:'Sawasdee, Bold';font-variant-ligatures:normal;font-variant-caps:normal;font-variant-numeric:normal;font-variant-east-asian:normal;stroke-width:0.264585"
         id="path1336" />
    </g>
    <path
       style="fill:none;stroke:#000000;stroke-width:0.264583px;stroke-linecap:butt;stroke-linejoin:miter;stroke-opacity:1"
       d="m 4.819,288.63293 c 0,0 0.2545546,-2.0003 1,-2.0003 0.7454454,0 1,2 1,2 0,0 0.2547335,1.9997 1,2 0.7455649,3e-4 1.002,-1.9997 1.002,-1.9997"
       id="path359"
       sodipodi:nodetypes="ccccc" />
    <path
       style="fill:none;stroke:#000000;stroke-width:0.244443px;stroke-linecap:butt;stroke-linejoin:miter;stroke-opacity:1"
       d="m 13.82,288.75485 1,-2.00022 1,2.00022 1,1.99978 1,-1.99978"
       id="path361"
       sodipodi:nodetypes="ccccc" />
    <path
       id="path363"
       d="m 22.82,288.75485 v -2.00022 l 2,2.00022 2,1.99978 v -1.99978"
       style="fill:none;stroke:#000000;stroke-width:0.244443px;stroke-linecap:butt;stroke-linejoin:miter;stroke-opacity:1"
       sodipodi:nodetypes="ccccc" />
    <path
       style="fill:none;stroke:#000000;stroke-width:0.244443px;stroke-linecap:butt;stroke-linejoin:miter;stroke-opacity:1"
       d="m 31.82,288.75463 v -2 h 2 v 2 2 l 2,0.024 v -2.0238"
       id="path365"
       sodipodi:nodetypes="ccccccc" />
    <g
       transform="translate(0,-1.8040693)"
       aria-label=" OCT"
       id="text369"
       style="font-style:normal;font-weight:normal;font-size:2.82222px;line-height:1.25;font-family:sans-serif;fill:#000000;fill-opacity:1;stroke:none;stroke-width:0.264583">
      <path
         d="m 4.5976814,266.95546 q 0.1929252,-0.0827 0.4051429,-0.0827 0.2122177,0 0.4051429,0.0827 0.1943033,0.0827 0.333485,0.22324 0.1405598,0.14056 0.223242,0.33487 0.082682,0.1943 0.082682,0.4079 0,0.21359 -0.082682,0.40789 -0.082682,0.19293 -0.223242,0.33349 -0.1391817,0.14056 -0.333485,0.22324 -0.1929252,0.0827 -0.4051429,0.0827 -0.2122177,0 -0.4051429,-0.0827 -0.1929252,-0.0827 -0.332107,-0.22324 -0.1391817,-0.14056 -0.221864,-0.33349 -0.082682,-0.1943 -0.082682,-0.40789 0,-0.2136 0.082682,-0.4079 0.082682,-0.19431 0.221864,-0.33487 0.1391818,-0.14056 0.332107,-0.22324 z m -0.5140079,0.96601 q 0,0.18741 0.071658,0.35829 0.073036,0.17087 0.1956813,0.2949 0.1226453,0.12402 0.2935219,0.19843 0.1708766,0.073 0.3582897,0.073 0.1887911,0 0.3596677,-0.073 0.1708766,-0.0744 0.2935219,-0.19843 0.1226453,-0.12403 0.1956813,-0.2949 0.073036,-0.17088 0.073036,-0.35829 0,-0.25219 -0.1226453,-0.4644 -0.1226453,-0.2136 -0.336241,-0.33762 -0.2122177,-0.12403 -0.4630205,-0.12403 -0.2508028,0 -0.4630205,0.12403 -0.2108397,0.12402 -0.333485,0.33762 -0.1226453,0.21221 -0.1226455,0.4644 z"
         style="font-style:normal;font-variant:normal;font-weight:bold;font-stretch:normal;font-size:2.82222px;font-family:Sawasdee;-inkscape-font-specification:'Sawasdee, Bold';font-variant-ligatures:normal;font-variant-caps:normal;font-variant-numeric:normal;font-variant-east-asian:normal;stroke-width:0.264583"
         id="path1271" />
      <path
         d="m 8.1654195,268.4713 0.099219,0.0675 q -0.1433158,0.19706 -0.3638018,0.31143 -0.2204859,0.113 -0.4754228,0.113 -0.2122177,0 -0.4051429,-0.0827 -0.1929252,-0.0827 -0.332107,-0.22324 -0.1391817,-0.14056 -0.221864,-0.33487 -0.082682,-0.1943 -0.082682,-0.40789 0,-0.2136 0.082682,-0.4079 0.082682,-0.19431 0.221864,-0.33487 0.1391818,-0.14056 0.332107,-0.22324 0.1929252,-0.0827 0.4051429,-0.0827 0.2535588,0 0.4740448,0.11575 0.2204859,0.11438 0.3651798,0.31282 l -0.099219,0.073 q -0.1281574,-0.17225 -0.3224607,-0.27147 -0.1929252,-0.1006 -0.4175452,-0.1006 -0.2508028,0 -0.4630205,0.12403 -0.2108397,0.12402 -0.333485,0.33762 -0.1226453,0.21221 -0.1226453,0.4644 0,0.18741 0.071658,0.35829 0.073036,0.17087 0.1956813,0.2949 0.1226453,0.12402 0.2935219,0.19843 0.1708766,0.073 0.3582897,0.073 0.22462,0 0.4175452,-0.1006 0.1943033,-0.1006 0.3224607,-0.27423 z"
         style="font-style:normal;font-variant:normal;font-weight:normal;font-stretch:normal;font-size:2.82222px;font-family:Sawasdee;-inkscape-font-specification:'Sawasdee, Normal';font-variant-ligatures:normal;font-variant-caps:normal;font-variant-numeric:normal;font-variant-east-asian:normal;stroke-width:0.264583"
         id="path1273" />
      <path
         d="m 9.8025278,266.89069 v 0.12403 H 9.2692275 v 1.93338 H 9.1452041 v -1.93338 H 8.6105257 v -0.12403 z"
         style="font-style:normal;font-variant:normal;font-weight:normal;font-stretch:normal;font-size:2.82222px;font-family:Sawasdee;-inkscape-font-specification:'Sawasdee, Normal';font-variant-ligatures:normal;font-variant-caps:normal;font-variant-numeric:normal;font-variant-east-asian:normal;stroke-width:0.264583"
         id="path1275" />
    </g>
    <g
       transform="translate(0,-1.8040693)"
       aria-label="FM"
       id="text381"
       style="font-style:normal;font-weight:normal;font-size:2.82222px;line-height:1.25;font-family:sans-serif;fill:#000000;fill-opacity:1;stroke:none;stroke-width:0.264583">
      <path
         d="m 6.2165268,249.69034 v 0.12403 H 5.2298522 v 1.13274 H 5.1058288 v -2.05741 h 1.1961363 v 0.12403 H 5.2298522 v 0.67661 z"
         style="font-style:normal;font-variant:normal;font-weight:normal;font-stretch:normal;font-size:2.82222px;font-family:Sawasdee;-inkscape-font-specification:'Sawasdee, Normal';font-variant-ligatures:normal;font-variant-caps:normal;font-variant-numeric:normal;font-variant-east-asian:normal;stroke-width:0.264583"
         id="path1287" />
      <path
         d="M 6.5527679,250.94711 H 6.4315006 l 0.3941186,-2.08221 0.7510303,1.78594 0.7634325,-1.78594 0.3830944,2.08221 H 8.5936409 l -0.3017902,-1.65364 -0.7234695,1.67707 -0.7014209,-1.67707 z"
         style="font-style:normal;font-variant:normal;font-weight:normal;font-stretch:normal;font-size:2.82222px;font-family:Sawasdee;-inkscape-font-specification:'Sawasdee, Normal';font-variant-ligatures:normal;font-variant-caps:normal;font-variant-numeric:normal;font-variant-east-asian:normal;stroke-width:0.264583"
         id="path1289" />
    </g>
    <g
       transform="translate(0,-1.8040693)"
       aria-label="PWM"
       id="text387"
       style="font-style:normal;font-weight:normal;font-size:2.82222px;line-height:1.25;font-family:sans-serif;fill:#000000;fill-opacity:1;stroke:none;stroke-width:0.264583">
      <path
         d="m 30.563252,251.08075 v -2.06017 h 0.730359 q 0.221864,0 0.376204,0.15986 0.154341,0.15985 0.154341,0.38447 0,0.22737 -0.154341,0.38861 -0.152962,0.16123 -0.37207,0.16123 h -0.61047 v 0.966 z m 0.124023,-1.09554 h 0.61047 q 0.163987,0 0.28112,-0.12265 0.118511,-0.12264 0.118511,-0.29765 0,-0.17501 -0.118511,-0.29766 -0.118511,-0.12402 -0.285254,-0.12402 h -0.606336 z"
         style="font-style:normal;font-variant:normal;font-weight:normal;font-stretch:normal;font-size:2.82222px;font-family:Sawasdee;-inkscape-font-specification:'Sawasdee, Normal';font-variant-ligatures:normal;font-variant-caps:normal;font-variant-numeric:normal;font-variant-east-asian:normal;stroke-width:0.264583"
         id="path1292" />
      <path
         d="m 32.000544,249.02334 h 0.122646 l 0.604958,1.70188 0.592556,-1.72668 0.591178,1.72668 0.599446,-1.70188 h 0.132292 l -0.731738,2.08084 -0.588422,-1.71704 -0.5898,1.71704 z"
         style="font-style:normal;font-variant:normal;font-weight:normal;font-stretch:normal;font-size:2.82222px;font-family:Sawasdee;-inkscape-font-specification:'Sawasdee, Normal';font-variant-ligatures:normal;font-variant-caps:normal;font-variant-numeric:normal;font-variant-east-asian:normal;stroke-width:0.264583"
         id="path1294" />
      <path
         d="m 34.844813,251.08075 h -0.121267 l 0.394118,-2.08221 0.751031,1.78593 0.763432,-1.78593 0.383094,2.08221 h -0.129535 l -0.30179,-1.65365 -0.72347,1.67708 -0.701421,-1.67708 z"
         style="font-style:normal;font-variant:normal;font-weight:normal;font-stretch:normal;font-size:2.82222px;font-family:Sawasdee;-inkscape-font-specification:'Sawasdee, Normal';font-variant-ligatures:normal;font-variant-caps:normal;font-variant-numeric:normal;font-variant-east-asian:normal;stroke-width:0.264583"
         id="path1296" />
    </g>
    <g
       transform="translate(0,-1.8040693)"
       aria-label="SYNC"
       id="text393"
       style="font-style:normal;font-weight:normal;font-size:2.82222px;line-height:1.25;font-family:sans-serif;fill:#000000;fill-opacity:1;stroke:none;stroke-width:0.264583">
      <path
         d="m 31.285868,267.13647 -0.117133,0.04 q -0.04823,-0.14745 -0.159852,-0.22324 -0.110243,-0.0758 -0.241157,-0.0758 -0.158474,0 -0.259071,0.10197 -0.09922,0.10198 -0.09922,0.24943 0,0.0758 0.03445,0.1378 0.03445,0.062 0.09233,0.10611 0.05788,0.0441 0.132292,0.0827 0.07579,0.0372 0.158474,0.0717 0.08406,0.0344 0.166742,0.073 0.08406,0.0372 0.158475,0.0868 0.07579,0.0496 0.133669,0.11025 0.05788,0.0606 0.09233,0.14882 0.03445,0.0882 0.03445,0.19569 0,0.17914 -0.09233,0.32108 -0.09233,0.14194 -0.239778,0.21635 -0.14745,0.0744 -0.318327,0.0744 -0.111621,0 -0.213596,-0.0358 -0.101974,-0.0358 -0.190169,-0.10611 -0.08819,-0.0717 -0.150206,-0.19017 -0.06201,-0.11851 -0.0813,-0.27148 l 0.122645,-0.0151 q 0.03445,0.24804 0.176389,0.37069 0.143316,0.12127 0.336241,0.12127 0.136426,0 0.254937,-0.0565 0.118511,-0.0579 0.194303,-0.17088 0.07717,-0.11438 0.07717,-0.26183 0,-0.0923 -0.03445,-0.16674 -0.03445,-0.0744 -0.09233,-0.1254 -0.05788,-0.051 -0.13367,-0.0937 -0.07441,-0.0427 -0.158474,-0.0772 -0.08268,-0.0358 -0.166743,-0.0717 -0.08268,-0.0358 -0.158474,-0.0799 -0.07441,-0.0441 -0.132291,-0.0965 -0.05788,-0.0524 -0.09233,-0.12815 -0.03445,-0.0772 -0.03445,-0.17226 0,-0.19843 0.135048,-0.33762 0.135047,-0.14056 0.347265,-0.14056 0.165365,0 0.310059,0.10336 0.146071,0.10197 0.208083,0.28525 z"
         style="font-style:normal;font-variant:normal;font-weight:normal;font-stretch:normal;font-size:2.82222px;font-family:Sawasdee;-inkscape-font-specification:'Sawasdee, Normal';font-variant-ligatures:normal;font-variant-caps:normal;font-variant-numeric:normal;font-variant-east-asian:normal;stroke-width:0.264583"
         id="path1278" />
      <path
         d="m 31.503598,266.77267 h 0.144694 l 0.65319,1.03628 0.654567,-1.03628 h 0.143316 l -0.735872,1.16857 v 0.88884 h -0.122645 v -0.88884 z"
         style="font-style:normal;font-variant:normal;font-weight:normal;font-stretch:normal;font-size:2.82222px;font-family:Sawasdee;-inkscape-font-specification:'Sawasdee, Normal';font-variant-ligatures:normal;font-variant-caps:normal;font-variant-numeric:normal;font-variant-east-asian:normal;stroke-width:0.264583"
         id="path1280" />
      <path
         d="m 33.377729,268.83008 v -2.08222 l 1.730814,1.80385 v -1.77904 h 0.122646 v 2.08083 l -1.729437,-1.80109 v 1.77767 z"
         style="font-style:normal;font-variant:normal;font-weight:normal;font-stretch:normal;font-size:2.82222px;font-family:Sawasdee;-inkscape-font-specification:'Sawasdee, Normal';font-variant-ligatures:normal;font-variant-caps:normal;font-variant-numeric:normal;font-variant-east-asian:normal;stroke-width:0.264583"
         id="path1282" />
      <path
         d="m 37.411243,268.35328 0.09922,0.0675 q -0.143316,0.19706 -0.363802,0.31144 -0.220486,0.113 -0.475423,0.113 -0.212217,0 -0.405142,-0.0827 -0.192926,-0.0827 -0.332107,-0.22324 -0.139182,-0.14056 -0.221864,-0.33486 -0.08268,-0.1943 -0.08268,-0.4079 0,-0.2136 0.08268,-0.4079 0.08268,-0.1943 0.221864,-0.33486 0.139181,-0.14056 0.332107,-0.22324 0.192925,-0.0827 0.405142,-0.0827 0.253559,0 0.474045,0.11576 0.220486,0.11438 0.36518,0.31281 l -0.09922,0.073 q -0.128157,-0.17226 -0.32246,-0.27147 -0.192925,-0.1006 -0.417546,-0.1006 -0.250802,0 -0.46302,0.12402 -0.21084,0.12403 -0.333485,0.33762 -0.122645,0.21222 -0.122645,0.4644 0,0.18741 0.07166,0.35829 0.07304,0.17088 0.195681,0.2949 0.122645,0.12402 0.293522,0.19844 0.170876,0.073 0.358289,0.073 0.224621,0 0.417546,-0.10059 0.194303,-0.1006 0.32246,-0.27423 z"
         style="font-style:normal;font-variant:normal;font-weight:normal;font-stretch:normal;font-size:2.82222px;font-family:Sawasdee;-inkscape-font-specification:'Sawasdee, Normal';font-variant-ligatures:normal;font-variant-caps:normal;font-variant-numeric:normal;font-variant-east-asian:normal;stroke-width:0.264583"
         id="path1284" />
    </g>
    <path
       style="fill:none;stroke:#000000;stroke-width:0.665;stroke-linecap:butt;stroke-linejoin:miter;stroke-miterlimit:4;stroke-dasharray:none;stroke-opacity:1"
       d="m 6.7815769,254.4526 8.7530761,8.75308 v 8.86249"
       id="path401" />
    <path
       style="fill:none;stroke:#000000;stroke-width:0.665;stroke-linecap:butt;stroke-linejoin:miter;stroke-miterlimit:4;stroke-dasharray:none;stroke-opacity:1"
       d="m 33.895149,254.5256 -8.635054,8.63505 v 9.12818"
       id="path403" />
    <g
       transform="translate(0,-0.0978772)"
       aria-label="OCTAVE"
       id="text1230"
       style="font-style:normal;font-weight:normal;font-size:2.82222px;line-height:1.25;font-family:sans-serif;fill:#000000;fill-opacity:1;stroke:none;stroke-width:0.264583">
      <path
         d="m 16.02648,226.46704 q 0.192925,-0.0827 0.405143,-0.0827 0.212218,0 0.405143,0.0827 0.194303,0.0827 0.333485,0.22325 0.14056,0.14056 0.223242,0.33486 0.08268,0.1943 0.08268,0.4079 0,0.21359 -0.08268,0.4079 -0.08268,0.19292 -0.223242,0.33348 -0.139182,0.14056 -0.333485,0.22324 -0.192925,0.0827 -0.405143,0.0827 -0.212218,0 -0.405143,-0.0827 -0.192925,-0.0827 -0.332107,-0.22324 -0.139182,-0.14056 -0.221864,-0.33348 -0.08268,-0.19431 -0.08268,-0.4079 0,-0.2136 0.08268,-0.4079 0.08268,-0.1943 0.221864,-0.33486 0.139182,-0.14056 0.332107,-0.22325 z m -0.514008,0.96601 q 0,0.18741 0.07166,0.35829 0.07304,0.17087 0.195681,0.2949 0.122646,0.12402 0.293522,0.19844 0.170877,0.073 0.35829,0.073 0.188791,0 0.359668,-0.073 0.170876,-0.0744 0.293522,-0.19844 0.122645,-0.12403 0.195681,-0.2949 0.07304,-0.17088 0.07304,-0.35829 0,-0.25218 -0.122645,-0.4644 -0.122646,-0.2136 -0.336242,-0.33762 -0.212217,-0.12402 -0.46302,-0.12402 -0.250803,0 -0.463021,0.12402 -0.210839,0.12402 -0.333485,0.33762 -0.122645,0.21222 -0.122645,0.4644 z"
         style="font-style:normal;font-variant:normal;font-weight:normal;font-stretch:normal;font-size:2.82222px;font-family:Sawasdee;-inkscape-font-specification:'Sawasdee, Normal';font-variant-ligatures:normal;font-variant-caps:normal;font-variant-numeric:normal;font-variant-east-asian:normal;stroke-width:0.264583"
         id="path1299" />
      <path
         d="m 19.594218,227.98289 0.09922,0.0675 q -0.143316,0.19706 -0.363802,0.31144 -0.220486,0.11299 -0.475423,0.11299 -0.212217,0 -0.405143,-0.0827 -0.192925,-0.0827 -0.332107,-0.22324 -0.139181,-0.14056 -0.221864,-0.33486 -0.08268,-0.19431 -0.08268,-0.4079 0,-0.2136 0.08268,-0.4079 0.08268,-0.1943 0.221864,-0.33486 0.139182,-0.14056 0.332107,-0.22325 0.192926,-0.0827 0.405143,-0.0827 0.253559,0 0.474045,0.11576 0.220486,0.11437 0.36518,0.31281 l -0.09922,0.073 q -0.128157,-0.17226 -0.32246,-0.27148 -0.192926,-0.10059 -0.417546,-0.10059 -0.250802,0 -0.46302,0.12402 -0.21084,0.12402 -0.333485,0.33762 -0.122646,0.21222 -0.122646,0.4644 0,0.18741 0.07166,0.35829 0.07304,0.17087 0.195682,0.2949 0.122645,0.12402 0.293522,0.19844 0.170876,0.073 0.358289,0.073 0.22462,0 0.417546,-0.1006 0.194303,-0.10059 0.32246,-0.27422 z"
         style="font-style:normal;font-variant:normal;font-weight:normal;font-stretch:normal;font-size:2.82222px;font-family:Sawasdee;-inkscape-font-specification:'Sawasdee, Normal';font-variant-ligatures:normal;font-variant-caps:normal;font-variant-numeric:normal;font-variant-east-asian:normal;stroke-width:0.264583"
         id="path1301" />
      <path
         d="m 21.231327,226.40228 v 0.12402 h -0.533301 v 1.93339 h -0.124023 v -1.93339 h -0.534679 v -0.12402 z"
         style="font-style:normal;font-variant:normal;font-weight:normal;font-stretch:normal;font-size:2.82222px;font-family:Sawasdee;-inkscape-font-specification:'Sawasdee, Normal';font-variant-ligatures:normal;font-variant-caps:normal;font-variant-numeric:normal;font-variant-east-asian:normal;stroke-width:0.264583"
         id="path1303" />
      <path
         d="m 21.789431,227.69763 h 0.829578 l -0.416167,-0.99908 z m 0.879188,0.12403 h -0.938444 l -0.261827,0.63803 h -0.132291 l 0.862651,-2.08222 0.865407,2.08222 h -0.132291 z"
         style="font-style:normal;font-variant:normal;font-weight:normal;font-stretch:normal;font-size:2.82222px;font-family:Sawasdee;-inkscape-font-specification:'Sawasdee, Normal';font-variant-ligatures:normal;font-variant-caps:normal;font-variant-numeric:normal;font-variant-east-asian:normal;stroke-width:0.264583"
         id="path1305" />
      <path
         d="m 24.393921,226.40228 h 0.136426 l -0.826822,2.08083 -0.851627,-2.08083 h 0.132291 l 0.715202,1.74873 z"
         style="font-style:normal;font-variant:normal;font-weight:normal;font-stretch:normal;font-size:2.82222px;font-family:Sawasdee;-inkscape-font-specification:'Sawasdee, Normal';font-variant-ligatures:normal;font-variant-caps:normal;font-variant-numeric:normal;font-variant-east-asian:normal;stroke-width:0.264583"
         id="path1307" />
      <path
         d="m 25.916653,227.20292 v 0.12402 h -0.986675 v 1.00872 h 1.066601 v 0.12403 h -1.190624 v -2.05741 h 1.196136 v 0.12402 h -1.072113 v 0.67662 z"
         style="font-style:normal;font-variant:normal;font-weight:normal;font-stretch:normal;font-size:2.82222px;font-family:Sawasdee;-inkscape-font-specification:'Sawasdee, Normal';font-variant-ligatures:normal;font-variant-caps:normal;font-variant-numeric:normal;font-variant-east-asian:normal;stroke-width:0.264583"
         id="path1309" />
    </g>
    <g
       transform="translate(8.2853472,-19.011682)"
       aria-label="PITCH"
       id="text1234"
       style="font-style:normal;font-weight:normal;font-size:2.82222px;line-height:1.25;font-family:sans-serif;fill:#000000;fill-opacity:1;stroke:none;stroke-width:0.264583">
      <path
         d="m 8.2099753,201.82524 v -2.06016 H 8.940335 q 0.221864,0 0.3762042,0.15985 0.1543401,0.15985 0.1543401,0.38447 0,0.22738 -0.1543401,0.38861 -0.1529622,0.16123 -0.3720701,0.16123 H 8.3339987 v 0.966 z m 0.1240234,-1.09554 h 0.6104704 q 0.1639864,0 0.2811196,-0.12264 0.1185112,-0.12265 0.1185112,-0.29766 0,-0.17501 -0.1185112,-0.29766 -0.1185112,-0.12402 -0.2852537,-0.12402 H 8.3339987 Z"
         style="font-style:normal;font-variant:normal;font-weight:normal;font-stretch:normal;font-size:2.82222px;font-family:Sawasdee;-inkscape-font-specification:'Sawasdee, Normal';font-variant-ligatures:normal;font-variant-caps:normal;font-variant-numeric:normal;font-variant-east-asian:normal;stroke-width:0.264583"
         id="path1312" />
      <path
         d="M 9.9917774,201.82524 H 9.8677541 v -2.05741 h 0.1240233 z"
         style="font-style:normal;font-variant:normal;font-weight:normal;font-stretch:normal;font-size:2.82222px;font-family:Sawasdee;-inkscape-font-specification:'Sawasdee, Normal';font-variant-ligatures:normal;font-variant-caps:normal;font-variant-numeric:normal;font-variant-east-asian:normal;stroke-width:0.264583"
         id="path1314" />
      <path
         d="m 11.49246,199.76783 v 0.12402 h -0.5333 v 1.93339 h -0.124024 v -1.93339 h -0.534678 v -0.12402 z"
         style="font-style:normal;font-variant:normal;font-weight:normal;font-stretch:normal;font-size:2.82222px;font-family:Sawasdee;-inkscape-font-specification:'Sawasdee, Normal';font-variant-ligatures:normal;font-variant-caps:normal;font-variant-numeric:normal;font-variant-east-asian:normal;stroke-width:0.264583"
         id="path1316" />
      <path
         d="m 13.424468,201.34844 0.09922,0.0675 q -0.143316,0.19706 -0.363802,0.31144 -0.220486,0.113 -0.475423,0.113 -0.212218,0 -0.405143,-0.0827 -0.192925,-0.0827 -0.332107,-0.22324 -0.139182,-0.14056 -0.221864,-0.33487 -0.08268,-0.1943 -0.08268,-0.4079 0,-0.21359 0.08268,-0.4079 0.08268,-0.1943 0.221864,-0.33486 0.139182,-0.14056 0.332107,-0.22324 0.192925,-0.0827 0.405143,-0.0827 0.253559,0 0.474045,0.11575 0.220486,0.11438 0.36518,0.31282 l -0.09922,0.073 q -0.128157,-0.17225 -0.322461,-0.27147 -0.192925,-0.1006 -0.417545,-0.1006 -0.250803,0 -0.46302,0.12403 -0.21084,0.12402 -0.333485,0.33761 -0.122646,0.21222 -0.122646,0.4644 0,0.18742 0.07166,0.35829 0.07304,0.17088 0.195681,0.2949 0.122646,0.12403 0.293522,0.19844 0.170877,0.073 0.35829,0.073 0.22462,0 0.417545,-0.1006 0.194304,-0.1006 0.322461,-0.27423 z"
         style="font-style:normal;font-variant:normal;font-weight:normal;font-stretch:normal;font-size:2.82222px;font-family:Sawasdee;-inkscape-font-specification:'Sawasdee, Normal';font-variant-ligatures:normal;font-variant-caps:normal;font-variant-numeric:normal;font-variant-east-asian:normal;stroke-width:0.264583"
         id="path1318" />
      <path
         d="m 15.257257,199.76783 h 0.124024 v 2.05741 h -0.124024 v -1.13275 h -1.21405 v 1.13275 h -0.124024 v -2.05741 h 0.124024 v 0.80064 h 1.21405 z"
         style="font-style:normal;font-variant:normal;font-weight:normal;font-stretch:normal;font-size:2.82222px;font-family:Sawasdee;-inkscape-font-specification:'Sawasdee, Normal';font-variant-ligatures:normal;font-variant-caps:normal;font-variant-numeric:normal;font-variant-east-asian:normal;stroke-width:0.264583"
         id="path1320" />
    </g>
    <g
       transform="translate(4.5000003,-24.856066)"
       aria-label="TUNE"
       id="text1238"
       style="font-style:normal;font-weight:normal;font-size:2.82222px;line-height:1.25;font-family:sans-serif;fill:#000000;fill-opacity:1;stroke:none;stroke-width:0.264583">
      <path
         d="m 27.28762,199.76783 v 0.12402 h -0.5333 v 1.93339 h -0.124024 v -1.93339 h -0.534678 v -0.12402 z"
         style="font-style:normal;font-variant:normal;font-weight:normal;font-stretch:normal;font-size:2.82222px;font-family:Sawasdee;-inkscape-font-specification:'Sawasdee, Normal';font-variant-ligatures:normal;font-variant-caps:normal;font-variant-numeric:normal;font-variant-east-asian:normal;stroke-width:0.264583"
         id="path1323" />
      <path
         d="m 27.597678,199.76783 h 0.124024 v 1.27744 q 0,0.18604 0.08406,0.34313 0.08406,0.1571 0.223242,0.24667 0.14056,0.0882 0.303168,0.0882 0.162609,0 0.300412,-0.0882 0.139182,-0.0896 0.220486,-0.24529 0.08268,-0.15709 0.08268,-0.34451 v -1.27744 h 0.124024 v 1.27744 q 0,0.21635 -0.09784,0.40101 -0.09646,0.18328 -0.265961,0.29214 -0.168121,0.10749 -0.367936,0.10749 -0.199815,0 -0.367936,-0.10749 -0.16812,-0.10886 -0.265961,-0.29214 -0.09646,-0.18466 -0.09646,-0.40101 z"
         style="font-style:normal;font-variant:normal;font-weight:normal;font-stretch:normal;font-size:2.82222px;font-family:Sawasdee;-inkscape-font-specification:'Sawasdee, Normal';font-variant-ligatures:normal;font-variant-caps:normal;font-variant-numeric:normal;font-variant-east-asian:normal;stroke-width:0.264583"
         id="path1325" />
      <path
         d="m 29.517284,201.82524 v -2.08221 l 1.730815,1.80385 v -1.77905 h 0.122645 v 2.08084 l -1.729437,-1.8011 v 1.77767 z"
         style="font-style:normal;font-variant:normal;font-weight:normal;font-stretch:normal;font-size:2.82222px;font-family:Sawasdee;-inkscape-font-specification:'Sawasdee, Normal';font-variant-ligatures:normal;font-variant-caps:normal;font-variant-numeric:normal;font-variant-east-asian:normal;stroke-width:0.264583"
         id="path1327" />
      <path
         d="m 32.940328,200.56847 v 0.12402 h -0.986674 v 1.00873 h 1.066601 v 0.12402 H 31.82963 v -2.05741 h 1.196137 v 0.12402 h -1.072113 v 0.67662 z"
         style="font-style:normal;font-variant:normal;font-weight:normal;font-stretch:normal;font-size:2.82222px;font-family:Sawasdee;-inkscape-font-specification:'Sawasdee, Normal';font-variant-ligatures:normal;font-variant-caps:normal;font-variant-numeric:normal;font-variant-east-asian:normal;stroke-width:0.264583"
         id="path1329" />
    </g>
    <path
       style="fill:none;stroke:#000000;stroke-width:0.665;stroke-linecap:butt;stroke-linejoin:miter;stroke-miterlimit:4;stroke-dasharray:none;stroke-opacity:1"
       d="m 33.990269,182.51853 0,21.69623"
       id="path1248"
       sodipodi:nodetypes="cc" />
    <path
       sodipodi:nodetypes="ccc"
       style="fill:none;stroke:#000000;stroke-width:0.665;stroke-linecap:butt;stroke-linejoin:miter;stroke-miterlimit:4;stroke-dasharray:none;stroke-opacity:1"
       d="M 20.49938,216.66443 H 6.8324115 l 0,-12.42574"
       id="path1269" />
    <g
       transform="translate(0,-6.0135643)"
       style="font-style:normal;font-weight:normal;font-size:2.82222px;line-height:1.25;font-family:sans-serif;fill:#000000;fill-opacity:1;stroke:none;stroke-width:0.264583"
       id="text121"
       aria-label="Pulse
width">
      <path
         id="path125"
         style="font-style:normal;font-variant:normal;font-weight:normal;font-stretch:normal;font-size:2.82222px;font-family:Sawasdee;-inkscape-font-specification:'Sawasdee, Normal';font-variant-ligatures:normal;font-variant-caps:normal;font-variant-numeric:diagonal-fractions;font-variant-east-asian:normal;stroke-width:0.264583"
         d="m 17.430208,247.33815 v -2.06017 h 0.73036 q 0.221864,0 0.376204,0.15986 0.15434,0.15985 0.15434,0.38447 0,0.22738 -0.15434,0.38861 -0.152962,0.16123 -0.37207,0.16123 h -0.61047 v 0.966 z m 0.124024,-1.09554 h 0.61047 q 0.163987,0 0.28112,-0.12264 0.118511,-0.12265 0.118511,-0.29766 0,-0.17501 -0.118511,-0.29766 -0.118512,-0.12402 -0.285254,-0.12402 h -0.606336 z" />
      <path
         id="path127"
         style="font-style:normal;font-variant:normal;font-weight:normal;font-stretch:normal;font-size:2.82222px;font-family:Sawasdee;-inkscape-font-specification:'Sawasdee, Normal';font-variant-ligatures:normal;font-variant-caps:normal;font-variant-numeric:diagonal-fractions;font-variant-east-asian:normal;stroke-width:0.264583"
         d="m 19.087987,245.94082 h 0.124023 v 0.86403 q 0,0.18052 0.108865,0.30592 0.108865,0.12541 0.265961,0.12541 0.158475,0 0.272852,-0.12541 0.115755,-0.12678 0.115755,-0.30592 v -0.86403 h 0.124023 v 0.86403 q 0,0.22738 -0.14745,0.39136 -0.14745,0.16261 -0.359667,0.16261 -0.21084,0 -0.35829,-0.16261 -0.146072,-0.16398 -0.146072,-0.39136 z" />
      <path
         id="path129"
         style="font-style:normal;font-variant:normal;font-weight:normal;font-stretch:normal;font-size:2.82222px;font-family:Sawasdee;-inkscape-font-specification:'Sawasdee, Normal';font-variant-ligatures:normal;font-variant-caps:normal;font-variant-numeric:diagonal-fractions;font-variant-east-asian:normal;stroke-width:0.264583"
         d="m 20.680998,247.33815 h -0.124024 v -2.05741 h 0.124024 z" />
      <path
         id="path131"
         style="font-style:normal;font-variant:normal;font-weight:normal;font-stretch:normal;font-size:2.82222px;font-family:Sawasdee;-inkscape-font-specification:'Sawasdee, Normal';font-variant-ligatures:normal;font-variant-caps:normal;font-variant-numeric:diagonal-fractions;font-variant-east-asian:normal;stroke-width:0.264583"
         d="m 21.884024,246.18749 -0.114377,0.04 q -0.02894,-0.0923 -0.09784,-0.14056 -0.0689,-0.0496 -0.14745,-0.0496 -0.09095,0 -0.155719,0.0579 -0.06339,0.0579 -0.06339,0.1571 0,0.0524 0.02894,0.0951 0.02894,0.0427 0.07579,0.0703 0.04685,0.0276 0.106108,0.0565 0.06063,0.0289 0.122646,0.0537 0.06201,0.0248 0.121267,0.062 0.06063,0.0372 0.107487,0.0799 0.04685,0.0427 0.07579,0.11024 0.02894,0.0675 0.02894,0.15159 0,0.19155 -0.136426,0.31144 -0.136426,0.11851 -0.316948,0.11851 -0.07855,0 -0.150207,-0.0248 -0.07166,-0.0262 -0.132291,-0.0758 -0.06063,-0.0496 -0.103353,-0.13229 -0.04272,-0.0827 -0.05512,-0.18879 l 0.122645,-0.0179 q 0.01929,0.1571 0.108865,0.23703 0.09095,0.0799 0.212218,0.0799 0.128157,0 0.227376,-0.0854 0.09922,-0.0868 0.09922,-0.22186 0,-0.0744 -0.03721,-0.13091 -0.03721,-0.0579 -0.09646,-0.0937 -0.05788,-0.0358 -0.129536,-0.0675 -0.07166,-0.0317 -0.143316,-0.0648 -0.07166,-0.0331 -0.130913,-0.0717 -0.05788,-0.04 -0.09509,-0.10335 -0.03721,-0.0648 -0.03721,-0.14745 0,-0.15434 0.101975,-0.24529 0.103353,-0.0909 0.243913,-0.0909 0.115755,0 0.216351,0.0703 0.100597,0.0689 0.143316,0.20119 z" />
      <path
         id="path133"
         style="font-style:normal;font-variant:normal;font-weight:normal;font-stretch:normal;font-size:2.82222px;font-family:Sawasdee;-inkscape-font-specification:'Sawasdee, Normal';font-variant-ligatures:normal;font-variant-caps:normal;font-variant-numeric:diagonal-fractions;font-variant-east-asian:normal;stroke-width:0.264583"
         d="m 22.442129,246.52097 h 1.015614 q -0.03859,-0.20808 -0.181901,-0.34313 -0.143316,-0.13504 -0.327973,-0.13504 -0.183279,0 -0.326595,0.13504 -0.141938,0.13505 -0.179145,0.34313 z m 1.150661,0.11714 h -1.169953 q 0,0.24667 0.15434,0.41892 0.15434,0.17226 0.36518,0.17226 0.139182,0 0.272851,-0.0744 0.13367,-0.0744 0.20395,-0.19981 l 0.108865,0.062 q -0.08406,0.1502 -0.248047,0.24667 -0.163986,0.0951 -0.337619,0.0951 -0.175011,0 -0.322461,-0.0978 -0.146072,-0.0978 -0.230132,-0.26321 -0.08268,-0.16674 -0.08268,-0.35966 0,-0.19155 0.08406,-0.35691 0.08544,-0.16537 0.232888,-0.26321 0.148828,-0.0992 0.323839,-0.0992 0.165365,0 0.307302,0.0896 0.143316,0.0882 0.231511,0.2384 0.08819,0.15021 0.103352,0.32936 z" />
      <path
         id="path135"
         style="font-style:normal;font-variant:normal;font-weight:normal;font-stretch:normal;font-size:2.82222px;font-family:Sawasdee;-inkscape-font-specification:'Sawasdee, Normal';font-variant-ligatures:normal;font-variant-caps:normal;font-variant-numeric:diagonal-fractions;font-variant-east-asian:normal;stroke-width:0.264583"
         d="m 17.248307,249.53336 h 0.135048 l 0.457508,1.09279 0.468533,-1.11759 0.469911,1.11759 0.446484,-1.09279 h 0.132291 l -0.578775,1.42076 -0.474045,-1.11621 -0.468533,1.11621 z" />
      <path
         id="path137"
         style="font-style:normal;font-variant:normal;font-weight:normal;font-stretch:normal;font-size:2.82222px;font-family:Sawasdee;-inkscape-font-specification:'Sawasdee, Normal';font-variant-ligatures:normal;font-variant-caps:normal;font-variant-numeric:diagonal-fractions;font-variant-east-asian:normal;stroke-width:0.264583"
         d="m 19.585458,249.20263 q 0,-0.0455 0.03169,-0.0785 0.03307,-0.0331 0.07993,-0.0331 0.04548,0 0.07717,0.0331 0.03307,0.0331 0.03307,0.0785 0,0.0469 -0.03169,0.0799 -0.0317,0.0317 -0.07855,0.0317 -0.04685,0 -0.07993,-0.0317 -0.03169,-0.0331 -0.03169,-0.0799 z m 0.173633,1.72806 h -0.124023 v -1.39733 h 0.124023 z" />
      <path
         id="path139"
         style="font-style:normal;font-variant:normal;font-weight:normal;font-stretch:normal;font-size:2.82222px;font-family:Sawasdee;-inkscape-font-specification:'Sawasdee, Normal';font-variant-ligatures:normal;font-variant-caps:normal;font-variant-numeric:diagonal-fractions;font-variant-east-asian:normal;stroke-width:0.264583"
         d="M 21.465101,250.93069 H 21.33281 q -0.02343,-0.0813 -0.02343,-0.18465 v -0.17364 q -0.05237,0.14332 -0.208084,0.26183 -0.15434,0.11713 -0.310058,0.11713 -0.175011,0 -0.322461,-0.0978 -0.146072,-0.0978 -0.230132,-0.2632 -0.08268,-0.16674 -0.08268,-0.35967 0,-0.19293 0.08268,-0.35691 0.08406,-0.16537 0.230132,-0.26321 0.14745,-0.0992 0.322461,-0.0992 0.158474,0 0.312814,0.11576 0.154341,0.11438 0.205328,0.26458 v -1.01837 h 0.122645 v 1.87276 q 0,0.11851 0.03307,0.18465 z m -0.310058,-0.27698 q 0.15434,-0.17501 0.15434,-0.42306 0,-0.24805 -0.152962,-0.42168 -0.152962,-0.17363 -0.36518,-0.17363 -0.21084,0 -0.36518,0.17363 -0.15434,0.17363 -0.15434,0.42168 0,0.24667 0.15434,0.42306 0.15434,0.17501 0.36518,0.17501 0.21084,0 0.363802,-0.17501 z" />
      <path
         id="path141"
         style="font-style:normal;font-variant:normal;font-weight:normal;font-stretch:normal;font-size:2.82222px;font-family:Sawasdee;-inkscape-font-specification:'Sawasdee, Normal';font-variant-ligatures:normal;font-variant-caps:normal;font-variant-numeric:diagonal-fractions;font-variant-east-asian:normal;stroke-width:0.264583"
         d="m 22.014938,250.93069 h -0.124023 v -1.27468 h -0.122646 v -0.12265 h 0.122646 v -0.33073 h 0.124023 v 0.33073 h 0.38585 l -0.04134,0.12265 h -0.344509 z" />
      <path
         id="path143"
         style="font-style:normal;font-variant:normal;font-weight:normal;font-stretch:normal;font-size:2.82222px;font-family:Sawasdee;-inkscape-font-specification:'Sawasdee, Normal';font-variant-ligatures:normal;font-variant-caps:normal;font-variant-numeric:diagonal-fractions;font-variant-east-asian:normal;stroke-width:0.264583"
         d="m 22.650213,250.93069 v -2.05741 h 0.124023 v 1.05696 q 0.07166,-0.16812 0.208084,-0.29352 0.136425,-0.12541 0.263205,-0.12541 0.14056,0 0.237022,0.0785 0.09784,0.0786 0.14056,0.2012 0.0441,0.12264 0.0441,0.27698 v 0.86265 H 23.54594 v -0.86265 q 0,-0.0758 -0.01516,-0.14607 -0.01378,-0.0703 -0.04548,-0.1378 -0.03169,-0.0675 -0.09508,-0.10749 -0.06201,-0.0413 -0.14745,-0.0413 -0.0813,0 -0.169499,0.0634 -0.08682,0.0634 -0.151584,0.15572 -0.06339,0.0909 -0.106109,0.1943 -0.04134,0.10335 -0.04134,0.1819 v 0.70004 z" />
    </g>
  </g>
  <g
     inkscape:groupmode="layer"
     id="layer2"
     inkscape:label="components"
     style="display:inline">
    <circle
       style="display:inline;opacity:1;vector-effect:none;fill:#ff0000;fill-opacity:1;fill-rule:evenodd;stroke:none;stroke-width:0.398644;stroke-linecap:butt;stroke-linejoin:miter;stroke-miterlimit:4;stroke-dasharray:none;stroke-dashoffset:0;stroke-opacity:1;paint-order:normal"
       id="path4954"
       cx="6.8200002"
       cy="85.966125"
       r="1.5945742"
       inkscape:label="fmknob" />
    <circle
       r="4"
       cy="103.57382"
       cx="6.8200002"
       id="circle4956"
       style="display:inline;opacity:1;vector-effect:none;fill:#00ff00;fill-opacity:1;fill-rule:evenodd;stroke:none;stroke-width:1;stroke-linecap:butt;stroke-linejoin:miter;stroke-miterlimit:4;stroke-dasharray:none;stroke-dashoffset:0;stroke-opacity:1;paint-order:normal"
       inkscape:label="octjack" />
    <circle
       style="display:inline;opacity:1;vector-effect:none;fill:#0000ff;fill-opacity:1;fill-rule:evenodd;stroke:none;stroke-width:1;stroke-linecap:butt;stroke-linejoin:miter;stroke-miterlimit:4;stroke-dasharray:none;stroke-dashoffset:0;stroke-opacity:1;paint-order:normal"
       id="circle4958"
       cx="6.8200002"
       cy="112.57342"
       r="4"
       inkscape:label="sinewavejack" />
    <circle
       inkscape:label="pitchknob"
       r="4"
       cy="25.760046"
       cx="20.031691"
       id="circle66"
       style="display:inline;opacity:1;vector-effect:none;fill:#ff0000;fill-opacity:1;fill-rule:evenodd;stroke:none;stroke-width:1;stroke-linecap:butt;stroke-linejoin:miter;stroke-miterlimit:4;stroke-dasharray:none;stroke-dashoffset:0;stroke-opacity:1;paint-order:normal" />
    <circle
       inkscape:label="squarewavejack"
       r="4"
       cy="112.57342"
       cx="33.82"
       id="circle42"
       style="display:inline;opacity:1;vector-effect:none;fill:#0000ff;fill-opacity:1;fill-rule:evenodd;stroke:none;stroke-width:1;stroke-linecap:butt;stroke-linejoin:miter;stroke-miterlimit:4;stroke-dasharray:none;stroke-dashoffset:0;stroke-opacity:1;paint-order:normal" />
    <circle
       style="display:inline;opacity:1;vector-effect:none;fill:#0000ff;fill-opacity:1;fill-rule:evenodd;stroke:none;stroke-width:1;stroke-linecap:butt;stroke-linejoin:miter;stroke-miterlimit:4;stroke-dasharray:none;stroke-dashoffset:0;stroke-opacity:1;paint-order:normal"
       id="circle44"
       cx="24.82"
       cy="112.57342"
       r="4"
       inkscape:label="sawwavejack" />
    <circle
       inkscape:label="trianglewavejack"
       r="4"
       cy="112.57342"
       cx="15.82"
       id="circle46"
       style="display:inline;opacity:1;vector-effect:none;fill:#0000ff;fill-opacity:1;fill-rule:evenodd;stroke:none;stroke-width:1;stroke-linecap:butt;stroke-linejoin:miter;stroke-miterlimit:4;stroke-dasharray:none;stroke-dashoffset:0;stroke-opacity:1;paint-order:normal" />
    <circle
       inkscape:label="fmjack"
       style="display:inline;opacity:1;vector-effect:none;fill:#00ff00;fill-opacity:1;fill-rule:evenodd;stroke:none;stroke-width:1;stroke-linecap:butt;stroke-linejoin:miter;stroke-miterlimit:4;stroke-dasharray:none;stroke-dashoffset:0;stroke-opacity:1;paint-order:normal"
       id="circle73"
       cx="15.82"
       cy="103.57382"
       r="4" />
    <circle
       r="4"
       cy="103.57382"
       cx="24.82"
       id="circle75"
       style="display:inline;opacity:1;vector-effect:none;fill:#00ff00;fill-opacity:1;fill-rule:evenodd;stroke:none;stroke-width:1;stroke-linecap:butt;stroke-linejoin:miter;stroke-miterlimit:4;stroke-dasharray:none;stroke-dashoffset:0;stroke-opacity:1;paint-order:normal"
       inkscape:label="pwmjack" />
    <circle
       inkscape:label="syncjack"
       style="display:inline;opacity:1;vector-effect:none;fill:#00ff00;fill-opacity:1;fill-rule:evenodd;stroke:none;stroke-width:1;stroke-linecap:butt;stroke-linejoin:miter;stroke-miterlimit:4;stroke-dasharray:none;stroke-dashoffset:0;stroke-opacity:1;paint-order:normal"
       id="circle77"
       cx="33.82"
       cy="103.57382"
       r="4" />
    <circle
       inkscape:label="pwmknob"
       r="1.5945742"
       cy="85.966125"
       cx="33.82"
       id="circle99"
       style="display:inline;opacity:1;vector-effect:none;fill:#ff0000;fill-opacity:1;fill-rule:evenodd;stroke:none;stroke-width:0.398644;stroke-linecap:butt;stroke-linejoin:miter;stroke-miterlimit:4;stroke-dasharray:none;stroke-dashoffset:0;stroke-opacity:1;paint-order:normal" />
    <circle
       style="display:inline;opacity:1;vector-effect:none;fill:#ff0000;fill-opacity:1;fill-rule:evenodd;stroke:none;stroke-width:0.398644;stroke-linecap:butt;stroke-linejoin:miter;stroke-miterlimit:4;stroke-dasharray:none;stroke-dashoffset:0;stroke-opacity:1;paint-order:normal"
       id="circle109"
       cx="33.82"
       cy="14.012503"
       r="1.5945742"
       inkscape:label="tuneknob" />
    <circle
       inkscape:label="octaveknob"
       cy="47.570427"
       cx="20.32"
       id="circle120"
       style="display:inline;opacity:1;vector-effect:none;fill:#ff0000;fill-opacity:1;fill-rule:evenodd;stroke:none;stroke-width:1;stroke-linecap:butt;stroke-linejoin:miter;stroke-miterlimit:4;stroke-dasharray:none;stroke-dashoffset:0;stroke-opacity:1;paint-order:normal"
       r="4" />
    <circle
       inkscape:label="blink"
       r="0.99321783"
       cy="2.106693"
       cx="22.926218"
       id="circle353"
       style="display:inline;opacity:1;vector-effect:none;fill:#ff00ff;fill-opacity:1;fill-rule:evenodd;stroke:none;stroke-width:0.248304;stroke-linecap:butt;stroke-linejoin:miter;stroke-miterlimit:4;stroke-dasharray:none;stroke-dashoffset:0;stroke-opacity:1;paint-order:normal" />
    <circle
       r="4"
       cy="35.539642"
       cx="33.82"
       id="circle1244"
       style="display:inline;opacity:1;vector-effect:none;fill:#00ff00;fill-opacity:1;fill-rule:evenodd;stroke:none;stroke-width:1;stroke-linecap:butt;stroke-linejoin:miter;stroke-miterlimit:4;stroke-dasharray:none;stroke-dashoffset:0;stroke-opacity:1;paint-order:normal"
       inkscape:label="tunejack" />
    <circle
       inkscape:label="octavejack"
       style="display:inline;opacity:1;vector-effect:none;fill:#00ff00;fill-opacity:1;fill-rule:evenodd;stroke:none;stroke-width:1;stroke-linecap:butt;stroke-linejoin:miter;stroke-miterlimit:4;stroke-dasharray:none;stroke-dashoffset:0;stroke-opacity:1;paint-order:normal"
       id="circle1250"
       cx="6.8200002"
       cy="35.539562"
       r="4" />
    <circle
       r="4"
       style="display:inline;opacity:1;vector-effect:none;fill:#ff0000;fill-opacity:1;fill-rule:evenodd;stroke:none;stroke-width:1;stroke-linecap:butt;stroke-linejoin:miter;stroke-miterlimit:4;stroke-dasharray:none;stroke-dashoffset:0;stroke-opacity:1;paint-order:normal"
       id="circle103"
       cx="20.32"
       cy="83.827499"
       inkscape:label="pulsewidthknob" />
  </g>
</svg>
